<?xml version="1.0" encoding="UTF-8" standalone="no"?>
<svg
   xmlns:dc="http://purl.org/dc/elements/1.1/"
   xmlns:cc="http://creativecommons.org/ns#"
   xmlns:rdf="http://www.w3.org/1999/02/22-rdf-syntax-ns#"
   xmlns:svg="http://www.w3.org/2000/svg"
   xmlns="http://www.w3.org/2000/svg"
   xmlns:sodipodi="http://sodipodi.sourceforge.net/DTD/sodipodi-0.dtd"
   xmlns:inkscape="http://www.inkscape.org/namespaces/inkscape"
   width="511.99985"
   height="474.46799"
   viewBox="0 0 135.46662 125.53633"
   version="1.1"
   id="svg8"
   inkscape:version="1.0.1 (3bc2e813f5, 2020-09-07)"
   sodipodi:docname="toilet_white_2.svg">
  <defs
     id="defs2" />
  <sodipodi:namedview
     id="base"
     pagecolor="#b0b0b0"
     bordercolor="#666666"
     borderopacity="1.0"
     inkscape:pageopacity="0"
     inkscape:pageshadow="2"
     inkscape:zoom="0.49497475"
     inkscape:cx="226.39705"
     inkscape:cy="354.38531"
     inkscape:document-units="mm"
     inkscape:current-layer="layer1"
     inkscape:document-rotation="0"
     showgrid="false"
     showborder="false"
     inkscape:window-width="1920"
     inkscape:window-height="1001"
     inkscape:window-x="-9"
     inkscape:window-y="-9"
     inkscape:window-maximized="1"
     units="px"
     fit-margin-top="0"
     fit-margin-left="0"
     fit-margin-right="0"
     fit-margin-bottom="0" />
  <metadata
     id="metadata5">
    <rdf:RDF>
      <cc:Work
         rdf:about="">
        <dc:format>image/svg+xml</dc:format>
        <dc:type
           rdf:resource="http://purl.org/dc/dcmitype/StillImage" />
        <dc:title></dc:title>
      </cc:Work>
    </rdf:RDF>
  </metadata>
  <g
     inkscape:label="Layer 1"
     inkscape:groupmode="layer"
     id="layer1"
     transform="translate(-50.19526,-49.112791)">
    <g
       id="g1032">
      <g
         id="g997"
         transform="matrix(0.26458333,0,0,0.26458333,50.195324,44.14762)"
         style="fill:#ffffff">
        <g
           id="g904"
           style="fill:#ffffff">
	<g
   id="g902"
   style="fill:#ffffff">
		<path
   d="m 146.645,109.31 c -54.918,0 -55.673,0 -101.357,0 -24.466,0 -44.468,19.904 -44.591,44.367 L 0,292.109 c -0.052,10.407 8.342,18.885 18.747,18.938 0.032,0 0.065,0 0.098,0 10.363,0 18.787,-8.375 18.841,-18.747 l 0.696,-138.432 c 0,-0.016 0,-0.031 0,-0.047 0.024,-2.055 1.704,-3.706 3.759,-3.694 2.055,0.012 3.715,1.683 3.715,3.738 l 0.008,316.757 c 0,12.488 10.124,22.612 22.612,22.612 12.488,0 22.612,-10.124 22.612,-22.612 V 289.888 h 9.763 v 180.734 c 0,12.488 10.123,22.611 22.611,22.611 12.488,0 22.611,-10.123 22.611,-22.611 0,-298.894 -0.4,-127.966 -0.41,-316.481 0,-2.121 1.674,-3.863 3.794,-3.946 2.12,-0.083 3.928,1.521 4.092,3.635 0,10e-4 0,0.002 0,0.002 l -0.128,138.354 c -0.01,10.406 8.419,18.851 18.825,18.861 0.007,0 0.011,0 0.018,0 10.397,0 18.833,-8.426 18.842,-18.825 l 0.128,-138.431 c 0.002,-0.039 0.002,-0.075 0.001,-0.114 -0.123,-24.463 -20.126,-44.367 -44.59,-44.367 z"
   id="path900"
   style="fill:#ffffff" />

	</g>

</g>
        <g
           id="g910"
           style="fill:#ffffff">
	<g
   id="g908"
   style="fill:#ffffff">
		<path
   id="circle906"
   style="fill:#ffffff"
   d="M 135.013,57.813 A 39.047001,39.047001 0 0 1 95.966003,96.860001 39.047001,39.047001 0 0 1 56.919003,57.813 39.047001,39.047001 0 0 1 95.966003,18.765999 39.047001,39.047001 0 0 1 135.013,57.813 Z" />

	</g>

</g>
        <g
           id="g916"
           style="fill:#ffffff">
	<g
   id="g914"
   style="fill:#ffffff">
		<path
   d="m 510.941,262.849 c -0.346,-0.986 -34.611,-98.717 -40.002,-114.406 -8.679,-25.253 -23.23,-38.057 -43.249,-38.057 -28.025,0 -37.18,0 -65.153,0 -20.02,0 -34.571,12.805 -43.249,38.057 -5.391,15.688 -39.656,113.421 -40.002,114.406 -3.418,9.748 1.714,20.423 11.464,23.841 9.758,3.42 20.425,-1.725 23.84,-11.462 1.106,-3.154 21.721,-60.433 33.222,-93.389 -1.204,9.838 2.264,-10.578 -26.737,139.154 -1.246,6.431 3.711,12.379 10.201,12.379 4.029,0 8.862,0 14.273,0 V 469.05 c 0,12.396 10.049,22.446 22.446,22.446 12.397,0 22.446,-10.049 22.446,-22.446 V 333.37 c 3.227,0 6.465,0 9.692,0 v 135.68 c 0,12.396 10.049,22.446 22.446,22.446 12.397,0 22.446,-10.049 22.446,-22.446 V 333.37 c 5.411,0 10.245,0 14.273,0 6.522,0 11.446,-5.952 10.201,-12.379 -28.737,-148.369 -25.57,-131.138 -26.55,-139.154 11.593,33.211 31.602,90.284 32.691,93.389 3.421,9.756 14.101,14.878 23.84,11.462 9.747,-3.418 14.879,-14.091 11.461,-23.839 z"
   id="path912"
   style="fill:#ffffff" />

	</g>

</g>
        <g
           id="g922"
           style="fill:#ffffff">
	<g
   id="g920"
   style="fill:#ffffff">
		<path
   id="circle918"
   style="fill:#ffffff"
   d="m 434.04999,59.264999 a 38.766998,38.766998 0 0 1 -38.767,38.766999 38.766998,38.766998 0 0 1 -38.767,-38.766999 38.766998,38.766998 0 0 1 38.767,-38.766998 38.766998,38.766998 0 0 1 38.767,38.766998 z" />

	</g>

</g>
        <g
           id="g928"
           style="fill:#ffffff">
	<g
   id="g926"
   style="fill:#ffffff">
		<path
   d="m 239.761,43.925 c -7.969,0 -14.43,6.46 -14.43,14.43 v 395.282 c 0,7.969 6.46,14.429 14.43,14.429 7.97,0 14.43,-6.459 14.43,-14.429 V 58.355 c 0,-7.97 -6.461,-14.43 -14.43,-14.43 z"
   id="path924"
   style="fill:#ffffff" />

	</g>

</g>
        <g
           id="g930"
           style="fill:#ffffff">
</g>
        <g
           id="g932"
           style="fill:#ffffff">
</g>
        <g
           id="g934"
           style="fill:#ffffff">
</g>
        <g
           id="g936"
           style="fill:#ffffff">
</g>
        <g
           id="g938"
           style="fill:#ffffff">
</g>
        <g
           id="g940"
           style="fill:#ffffff">
</g>
        <g
           id="g942"
           style="fill:#ffffff">
</g>
        <g
           id="g944"
           style="fill:#ffffff">
</g>
        <g
           id="g946"
           style="fill:#ffffff">
</g>
        <g
           id="g948"
           style="fill:#ffffff">
</g>
        <g
           id="g950"
           style="fill:#ffffff">
</g>
        <g
           id="g952"
           style="fill:#ffffff">
</g>
        <g
           id="g954"
           style="fill:#ffffff">
</g>
        <g
           id="g956"
           style="fill:#ffffff">
</g>
        <g
           id="g958"
           style="fill:#ffffff">
</g>
      </g>
    </g>
  </g>
</svg>
